<svg width="18" height="18" fill="none" xmlns="http://www.w3.org/2000/svg"><mask id="prefix__a" fill="#fff"><path d="M12.922 0C11.389 0 9.955.727 9 1.945 8.045.727 6.61 0 5.078 0 2.278 0 0 2.387 0 5.32c0 2.297 1.307 4.954 3.886 7.897 1.984 2.265 4.143 4.019 4.757 4.502L9 18l.356-.28c.615-.484 2.773-2.238 4.758-4.502C16.692 10.273 18 7.617 18 5.32 18 2.387 15.722 0 12.922 0z"/></mask><path d="M9 1.945l-1.18.925L9 4.375l1.18-1.505L9 1.945zM3.886 13.217l-1.128.989 1.128-.989zm4.757 4.502l-.927 1.18.927-1.18zM9 18l-.928 1.179.928.73.928-.73L9 18zm.356-.28l.928 1.178-.928-1.178zm4.758-4.502l1.128.988-1.128-.989zM12.922-1.5c-2.015 0-3.877.956-5.102 2.519l2.36 1.851c.685-.872 1.692-1.37 2.742-1.37v-3zM10.18 1.019C8.955-.544 7.093-1.5 5.078-1.5v3c1.05 0 2.057.498 2.742 1.37l2.36-1.851zM5.078-1.5C1.385-1.5-1.5 1.625-1.5 5.32h3c0-2.172 1.672-3.82 3.578-3.82v-3zM-1.5 5.32c0 2.842 1.595 5.846 4.258 8.886l2.256-1.977C2.52 9.383 1.5 7.073 1.5 5.32h-3zm4.258 8.886c2.072 2.366 4.313 4.185 4.958 4.692l1.855-2.357c-.584-.46-2.66-2.148-4.557-4.312l-2.256 1.977zm4.958 4.692l.356.28 1.856-2.357-.357-.28-1.855 2.357zm2.212.28l.356-.28-1.855-2.357-.357.28 1.856 2.358zm.356-.28c.645-.507 2.885-2.326 4.958-4.692l-2.256-1.977c-1.897 2.164-3.973 3.852-4.557 4.312l1.855 2.357zm4.958-4.692c2.663-3.04 4.258-6.044 4.258-8.886h-3c0 1.753-1.02 4.063-3.514 6.909l2.256 1.977zM19.5 5.32c0-3.695-2.885-6.82-6.578-6.82v3c1.906 0 3.578 1.648 3.578 3.82h3z" fill="#0058c5" mask="url(#prefix__a)"/></svg>